# xmcd CD database file
#
# Track frame offsets:
#	150
#	19564
#	33664
#	52979
#	67303
#	87439
#	99539
#	122203
#	140428
#	157129
#	175877
#	198827
#	220174
#	237214
#	255034
#
# Disc length: 3641 seconds
#
# Revision: 0
# Processed by: cddbd v1.5.2PL0 Copyright (c) Steve Scherf et al.
# Submitted via: CDex 1.70beta2
#
DISCID=cf0e370f
DTITLE=Алена и Сергей Меньшагины - You Are My Destiny
DYEAR=1900
DGENRE=Jazz
TTITLE0=You Are My Destiny
TTITLE1=What Now My Love
TTITLE2=What A Wonderful World
TTITLE3=Save Your Kisses For Me
TTITLE4=Sunny
TTITLE5=Bei Mir Bistu Sheyn
TTITLE6=Samba
TTITLE7=When I Tell You That You Love Me
TTITLE8=Stumblin'n
TTITLE9=Piu' Que Poul
TTITLE10=Unchain My Heart
TTITLE11=I Will Survive
TTITLE12=Venus
TTITLE13=Адажио
TTITLE14=Одесса-Мама
EXTD=
EXTT0=
EXTT1=
EXTT2=
EXTT3=
EXTT4=
EXTT5=
EXTT6=
EXTT7=
EXTT8=
EXTT9=
EXTT10=
EXTT11=
EXTT12=
EXTT13=
EXTT14=
PLAYORDER=
